{
	"asset":{
		"version":"2.0",
		"generator":"Created using the official Cinema 4D glTF Exporter 1.000x284978"
	},
	"buffers":[{
		"uri":"data:application/octet-stream;base64,",
		"byteLength":30272
	},
	{
		"uri":"data:application/octet-stream;base64,",
		"byteLength":208
	},
	{
		"uri":"data:application/octet-stream;base64,",
		"byteLength":1112960
	},
	{
		"uri":"data:application/octet-stream;base64,",
		"byteLength":196
	},
	{
		"uri":"data:application/octet-stream;base64,",
		"byteLength":35688
	},
	{
		"uri":"data:application/octet-stream;base64,",
		"byteLength":300
	},
	{
		"uri":"data:application/octet-stream;base64,",
		"byteLength":16936
	},
	{
		"uri":"data:application/octet-stream;base64,",
		"byteLength":16936
	}],
	"scenes":[{
		"nodes":[0,
		1,
		2]
	}],
	"materials":[{
		"pbrMetallicRoughness":{
			"baseColorTexture":{
				"index":0
			},
			"baseColorFactor":[0.8,
			0.8,
			0.8,
			1.0],
			"metallicFactor":1.0,
			"roughnessFactor":0.3
		},
		"normalTexture":{
			"index":1,
			"scale":1.0
		},
		"emissiveFactor":[0.0,
		0.0,
		0.0],
		"name":"PBR",
		"alphaMode":"OPAQUE",
		"doubleSided":false
	}],
	"nodes":[{
		"scale":[1.0,
		1.0,
		1.0],
		"name":"Torus",
		"translation":[0.0,
		0.0,
		0.0],
		"rotation":[0.24596460163593293,
		-0.30160728096961977,
		0.3636774718761444,
		-0.8463292121887207],
		"mesh":0
	},
	{
		"scale":[1.0,
		1.0,
		1.0],
		"name":"Cloner",
		"translation":[-6.64642858505249,
		-10.575723648071289,
		8.525065422058106],
		"rotation":[0.31331849098205569,
		-0.46966010332107546,
		-0.3680227994918823,
		0.7387896180152893],
		"mesh":1
	},
	{
		"scale":[1.0,
		1.0,
		1.0],
		"name":"Sphere",
		"translation":[0.0,
		0.0,
		0.0],
		"rotation":[-0.05888878181576729,
		-0.06897766888141632,
		-0.1284393072128296,
		0.9875614047050476],
		"children":[3]
	},
	{
		"scale":[1.0,
		1.0,
		1.0],
		"name":"Extrude",
		"translation":[4.440892098500626e-16,
		2.6645352591003758e-15,
		23.096797943115236],
		"rotation":[0.0,
		-1.2246468525851679e-16,
		0.0,
		1.0],
		"mesh":2,
		"children":[4,
		5]
	},
	{
		"scale":[1.0,
		1.0,
		1.0],
		"name":"Cap 1",
		"translation":[0.9925770163536072,
		-20.3798770904541,
		0.0],
		"rotation":[-6.938893903907229e-18,
		-1.3877787807814458e-17,
		9.62964972193618e-35,
		-1.0],
		"mesh":3
	},
	{
		"scale":[1.0,
		1.0,
		1.0],
		"name":"Cap 2",
		"translation":[0.9925770163536072,
		-20.3798770904541,
		0.0],
		"rotation":[-6.938893903907229e-18,
		-1.3877787807814458e-17,
		9.62964972193618e-35,
		-1.0],
		"mesh":4
	}],
	"meshes":[{
		"name":"Torus",
		"primitives":[{
			"attributes":{
				"POSITION":1,
				"NORMAL":2,
				"TEXCOORD_0":3
			},
			"indices":0,
			"material":0
		}]
	},
	{
		"name":"Cloner",
		"primitives":[{
			"attributes":{
				"POSITION":11,
				"NORMAL":12,
				"TEXCOORD_0":13
			},
			"indices":10,
			"material":0
		}]
	},
	{
		"name":"Extrude",
		"primitives":[{
			"attributes":{
				"POSITION":21,
				"NORMAL":22,
				"TEXCOORD_0":23
			},
			"indices":20,
			"material":0
		}]
	},
	{
		"name":"Cap 1",
		"primitives":[{
			"attributes":{
				"POSITION":31,
				"NORMAL":32,
				"TEXCOORD_0":33
			},
			"indices":30,
			"material":0
		}]
	},
	{
		"name":"Cap 2",
		"primitives":[{
			"attributes":{
				"POSITION":35,
				"NORMAL":36,
				"TEXCOORD_0":37
			},
			"indices":34,
			"material":0
		}]
	}],
	"samplers":[{
		"magFilter":9729,
		"minFilter":9729,
		"wrapS":10497,
		"wrapT":10497
	},
	{
		"magFilter":9729,
		"minFilter":9729,
		"wrapS":10497,
		"wrapT":10497
	}],
	"accessors":[{
		"min":[0],
		"bufferView":0,
		"type":"SCALAR",
		"componentType":5123,
		"count":3888,
		"byteOffset":0,
		"max":[702]
	},
	{
		"min":[-326.6942138671875,
		-2.9157164096832277,
		-326.6942138671875],
		"bufferView":1,
		"type":"VEC3",
		"componentType":5126,
		"count":703,
		"byteOffset":0,
		"max":[326.6942138671875,
		2.9157164096832277,
		326.6942138671875]
	},
	{
		"min":[-1.0,
		-0.9848025441169739,
		-1.0],
		"bufferView":1,
		"type":"VEC3",
		"componentType":5126,
		"count":703,
		"byteOffset":12,
		"max":[1.0,
		0.9848025441169739,
		1.0]
	},
	{
		"min":[0.0,
		0.0],
		"bufferView":1,
		"type":"VEC2",
		"componentType":5126,
		"count":703,
		"byteOffset":24,
		"max":[1.0,
		1.0]
	},
	{
		"min":[0.0],
		"bufferView":2,
		"type":"SCALAR",
		"componentType":5126,
		"count":4,
		"byteOffset":0,
		"max":[5.0]
	},
	{
		"min":[0.0,
		0.0,
		0.0],
		"bufferView":2,
		"type":"VEC3",
		"componentType":5126,
		"count":4,
		"byteOffset":16,
		"max":[0.0,
		0.0,
		0.0]
	},
	{
		"min":[0.0],
		"bufferView":3,
		"type":"SCALAR",
		"componentType":5126,
		"count":4,
		"byteOffset":0,
		"max":[5.0]
	},
	{
		"min":[-0.08473916351795197,
		-0.9001426696777344,
		0.11488433927297592,
		-0.9851275682449341],
		"bufferView":3,
		"type":"VEC4",
		"componentType":5126,
		"count":4,
		"byteOffset":16,
		"max":[0.38354989886283877,
		-0.020898334681987764,
		0.33549872040748598,
		-0.26299577951431277]
	},
	{
		"min":[0.0],
		"bufferView":4,
		"type":"SCALAR",
		"componentType":5126,
		"count":4,
		"byteOffset":0,
		"max":[5.0]
	},
	{
		"min":[1.0,
		1.0,
		1.0],
		"bufferView":4,
		"type":"VEC3",
		"componentType":5126,
		"count":4,
		"byteOffset":16,
		"max":[1.0,
		1.0,
		1.0]
	},
	{
		"min":[0],
		"bufferView":5,
		"type":"SCALAR",
		"componentType":5123,
		"count":85440,
		"byteOffset":0,
		"max":[29439]
	},
	{
		"min":[-503.6935729980469,
		-208.6654510498047,
		-550.7479248046875],
		"bufferView":6,
		"type":"VEC3",
		"componentType":5126,
		"count":29440,
		"byteOffset":0,
		"max":[527.2003784179688,
		255.89813232421876,
		528.544677734375]
	},
	{
		"min":[-0.9334776401519775,
		-0.9158070087432861,
		-0.9834945797920227],
		"bufferView":6,
		"type":"VEC3",
		"componentType":5126,
		"count":29440,
		"byteOffset":12,
		"max":[0.933477520942688,
		0.9157954454421997,
		0.9834946393966675]
	},
	{
		"min":[0.0,
		0.0],
		"bufferView":6,
		"type":"VEC2",
		"componentType":5126,
		"count":29440,
		"byteOffset":24,
		"max":[1.0,
		1.0]
	},
	{
		"min":[0.0],
		"bufferView":7,
		"type":"SCALAR",
		"componentType":5126,
		"count":3,
		"byteOffset":0,
		"max":[5.0]
	},
	{
		"min":[-6.64642858505249,
		-10.575723648071289,
		8.525065422058106],
		"bufferView":7,
		"type":"VEC3",
		"componentType":5126,
		"count":3,
		"byteOffset":12,
		"max":[-6.64642858505249,
		-10.575723648071289,
		8.525065422058106]
	},
	{
		"min":[0.0],
		"bufferView":8,
		"type":"SCALAR",
		"componentType":5126,
		"count":5,
		"byteOffset":0,
		"max":[5.0]
	},
	{
		"min":[-0.5734264850616455,
		-0.6651527881622315,
		-0.6254444718360901,
		-0.6221795082092285],
		"bufferView":8,
		"type":"VEC4",
		"componentType":5126,
		"count":5,
		"byteOffset":20,
		"max":[0.7147083282470703,
		-0.05259314924478531,
		0.0791868194937706,
		0.6929324865341187]
	},
	{
		"min":[0.0],
		"bufferView":9,
		"type":"SCALAR",
		"componentType":5126,
		"count":3,
		"byteOffset":0,
		"max":[5.0]
	},
	{
		"min":[1.0,
		1.0,
		1.0],
		"bufferView":9,
		"type":"VEC3",
		"componentType":5126,
		"count":3,
		"byteOffset":12,
		"max":[1.0,
		1.0,
		1.0]
	},
	{
		"min":[0],
		"bufferView":10,
		"type":"SCALAR",
		"componentType":5123,
		"count":2676,
		"byteOffset":0,
		"max":[947]
	},
	{
		"min":[-133.58792114257813,
		-113.92237854003906,
		-40.0],
		"bufferView":11,
		"type":"VEC3",
		"componentType":5126,
		"count":948,
		"byteOffset":0,
		"max":[135.5730743408203,
		73.1626205444336,
		-8.906089807422715e-16]
	},
	{
		"min":[-1.0,
		-0.9999868273735046,
		0.0],
		"bufferView":11,
		"type":"VEC3",
		"componentType":5126,
		"count":948,
		"byteOffset":12,
		"max":[1.0,
		0.9999712109565735,
		0.0]
	},
	{
		"min":[0.0,
		0.0],
		"bufferView":11,
		"type":"VEC2",
		"componentType":5126,
		"count":948,
		"byteOffset":24,
		"max":[1.0,
		1.0]
	},
	{
		"min":[0.0],
		"bufferView":12,
		"type":"SCALAR",
		"componentType":5126,
		"count":5,
		"byteOffset":0,
		"max":[5.0]
	},
	{
		"min":[0.0,
		-8.881784197001253e-16,
		23.096797943115236],
		"bufferView":12,
		"type":"VEC3",
		"componentType":5126,
		"count":5,
		"byteOffset":20,
		"max":[2.220446049250313e-16,
		2.220446049250313e-15,
		23.096797943115236]
	},
	{
		"min":[0.0],
		"bufferView":13,
		"type":"SCALAR",
		"componentType":5126,
		"count":7,
		"byteOffset":0,
		"max":[5.0]
	},
	{
		"min":[0.0,
		-1.0,
		0.0,
		-1.0],
		"bufferView":13,
		"type":"VEC4",
		"componentType":5126,
		"count":7,
		"byteOffset":28,
		"max":[0.0,
		0.0,
		0.0,
		1.0]
	},
	{
		"min":[0.0],
		"bufferView":14,
		"type":"SCALAR",
		"componentType":5126,
		"count":5,
		"byteOffset":0,
		"max":[5.0]
	},
	{
		"min":[1.0,
		1.0,
		1.0],
		"bufferView":14,
		"type":"VEC3",
		"componentType":5126,
		"count":5,
		"byteOffset":20,
		"max":[1.0,
		1.0,
		1.0]
	},
	{
		"min":[0],
		"bufferView":15,
		"type":"SCALAR",
		"componentType":5123,
		"count":1332,
		"byteOffset":0,
		"max":[445]
	},
	{
		"min":[-134.58050537109376,
		-93.5425033569336,
		-2.6114665273725258e-15],
		"bufferView":16,
		"type":"VEC3",
		"componentType":5126,
		"count":446,
		"byteOffset":0,
		"max":[134.58050537109376,
		93.5425033569336,
		6.2148183768587308e-15]
	},
	{
		"min":[2.7755406870783954e-17,
		2.7755016441534829e-17,
		1.0],
		"bufferView":16,
		"type":"VEC3",
		"componentType":5126,
		"count":446,
		"byteOffset":12,
		"max":[2.775586347448208e-17,
		2.7755932957653539e-17,
		1.0]
	},
	{
		"min":[0.0,
		0.0],
		"bufferView":16,
		"type":"VEC2",
		"componentType":5126,
		"count":446,
		"byteOffset":24,
		"max":[1.0,
		1.0]
	},
	{
		"min":[0],
		"bufferView":17,
		"type":"SCALAR",
		"componentType":5123,
		"count":1332,
		"byteOffset":0,
		"max":[445]
	},
	{
		"min":[-134.58050537109376,
		-93.5425033569336,
		-40.0],
		"bufferView":18,
		"type":"VEC3",
		"componentType":5126,
		"count":446,
		"byteOffset":0,
		"max":[134.58050537109376,
		93.5425033569336,
		-40.0]
	},
	{
		"min":[0.0,
		0.0,
		-1.0],
		"bufferView":18,
		"type":"VEC3",
		"componentType":5126,
		"count":446,
		"byteOffset":12,
		"max":[0.0,
		0.0,
		-1.0]
	},
	{
		"min":[0.0,
		0.0],
		"bufferView":18,
		"type":"VEC2",
		"componentType":5126,
		"count":446,
		"byteOffset":24,
		"max":[1.0,
		0.981147289276123]
	}],
	"bufferViews":[{
		"buffer":0,
		"byteOffset":0,
		"byteLength":7776,
		"target":34963
	},
	{
		"buffer":0,
		"byteOffset":7776,
		"byteLength":22496,
		"target":34962,
		"byteStride":32
	},
	{
		"buffer":1,
		"byteOffset":0,
		"byteLength":64
	},
	{
		"buffer":1,
		"byteOffset":64,
		"byteLength":80
	},
	{
		"buffer":1,
		"byteOffset":144,
		"byteLength":64
	},
	{
		"buffer":2,
		"byteOffset":0,
		"byteLength":170880,
		"target":34963
	},
	{
		"buffer":2,
		"byteOffset":170880,
		"byteLength":942080,
		"target":34962,
		"byteStride":32
	},
	{
		"buffer":3,
		"byteOffset":0,
		"byteLength":48
	},
	{
		"buffer":3,
		"byteOffset":48,
		"byteLength":100
	},
	{
		"buffer":3,
		"byteOffset":148,
		"byteLength":48
	},
	{
		"buffer":4,
		"byteOffset":0,
		"byteLength":5352,
		"target":34963
	},
	{
		"buffer":4,
		"byteOffset":5352,
		"byteLength":30336,
		"target":34962,
		"byteStride":32
	},
	{
		"buffer":5,
		"byteOffset":0,
		"byteLength":80
	},
	{
		"buffer":5,
		"byteOffset":80,
		"byteLength":140
	},
	{
		"buffer":5,
		"byteOffset":220,
		"byteLength":80
	},
	{
		"buffer":6,
		"byteOffset":0,
		"byteLength":2664,
		"target":34963
	},
	{
		"buffer":6,
		"byteOffset":2664,
		"byteLength":14272,
		"target":34962,
		"byteStride":32
	},
	{
		"buffer":7,
		"byteOffset":0,
		"byteLength":2664,
		"target":34963
	},
	{
		"buffer":7,
		"byteOffset":2664,
		"byteLength":14272,
		"target":34962,
		"byteStride":32
	}],
	"images":[{
		"uri":"data:image/jpeg;base64,"
	},
	{
		"uri":"data:image/jpeg;base64,"
	}],
	"textures":[{
		"sampler":0,
		"source":0
	},
	{
		"sampler":1,
		"source":1
	}],
	"animations":[{
		"samplers":[{
			"input":4,
			"interpolation":"LINEAR",
			"output":5
		},
		{
			"input":6,
			"interpolation":"LINEAR",
			"output":7
		},
		{
			"input":8,
			"interpolation":"LINEAR",
			"output":9
		},
		{
			"input":14,
			"interpolation":"LINEAR",
			"output":15
		},
		{
			"input":16,
			"interpolation":"LINEAR",
			"output":17
		},
		{
			"input":18,
			"interpolation":"LINEAR",
			"output":19
		},
		{
			"input":24,
			"interpolation":"LINEAR",
			"output":25
		},
		{
			"input":26,
			"interpolation":"LINEAR",
			"output":27
		},
		{
			"input":28,
			"interpolation":"LINEAR",
			"output":29
		}],
		"channels":[{
			"sampler":0,
			"target":{
				"node":0,
				"path":"translation"
			}
		},
		{
			"sampler":1,
			"target":{
				"node":0,
				"path":"rotation"
			}
		},
		{
			"sampler":2,
			"target":{
				"node":0,
				"path":"scale"
			}
		},
		{
			"sampler":3,
			"target":{
				"node":1,
				"path":"translation"
			}
		},
		{
			"sampler":4,
			"target":{
				"node":1,
				"path":"rotation"
			}
		},
		{
			"sampler":5,
			"target":{
				"node":1,
				"path":"scale"
			}
		},
		{
			"sampler":6,
			"target":{
				"node":3,
				"path":"translation"
			}
		},
		{
			"sampler":7,
			"target":{
				"node":3,
				"path":"rotation"
			}
		},
		{
			"sampler":8,
			"target":{
				"node":3,
				"path":"scale"
			}
		}]
	}]
}